<?xml version="1.0" encoding="UTF-8" standalone="no"?>
<!DOCTYPE svg PUBLIC "-//W3C//DTD SVG 20010904//EN"
              "http://www.w3.org/TR/2001/REC-SVG-20010904/DTD/svg10.dtd">

<svg xmlns="http://www.w3.org/2000/svg" width="1.98611in" height="3.45833in" viewBox="0 0 143 249">
  <path id="Selection" fill="none" stroke="black" stroke-width="1" d="M 60.00,49.00
           C 74.19,49.00 89.17,49.63 102.00,56.49
             110.88,61.24 118.97,69.78 120.84,80.00
             120.84,80.00 120.84,93.00 120.84,93.00
             120.93,98.50 119.83,103.19 117.05,108.00
             112.80,115.35 108.02,117.94 101.00,122.00
             110.22,124.17 119.55,129.77 124.52,138.00
             129.64,146.47 129.04,152.65 129.00,162.00
             128.94,174.57 124.30,185.29 114.00,192.84
             98.56,204.16 78.39,205.00 60.00,205.00
             41.77,205.00 34.42,205.36 16.00,202.00
             16.00,202.00 16.00,52.00 16.00,52.00
             34.21,48.72 41.98,49.00 60.00,49.00 Z
           M 54.00,115.00
           C 54.00,115.00 64.00,114.09 64.00,114.09
             72.95,113.48 79.72,113.91 88.00,109.12
             101.22,101.46 101.90,82.31 89.00,73.97
             76.23,65.71 52.04,68.00 37.00,68.00
             37.00,68.00 37.00,115.00 37.00,115.00
             37.00,115.00 54.00,115.00 54.00,115.00 Z
           M 95.00,179.52
           C 108.88,171.11 110.68,148.74 96.96,139.25
             88.97,133.72 79.28,133.37 70.00,132.96
             70.00,132.96 59.00,132.00 59.00,132.00
             59.00,132.00 37.00,132.00 37.00,132.00
             37.00,132.00 37.00,186.00 37.00,186.00
             54.05,186.00 80.12,188.54 95.00,179.52 Z" />
</svg>

