<?xml version="1.0" encoding="UTF-8" standalone="no"?>
<!DOCTYPE svg PUBLIC "-//W3C//DTD SVG 20010904//EN"
              "http://www.w3.org/TR/2001/REC-SVG-20010904/DTD/svg10.dtd">

<svg xmlns="http://www.w3.org/2000/svg"
     width="1.54444in" height="2.14444in"
     viewBox="0 0 139 193">
  <path id="Selection"
        fill="none" stroke="black" stroke-width="1"
        d="M 0.00,12.00
           C 0.00,10.05 -0.26,6.29 0.99,4.74
             2.47,2.90 8.59,2.47 11.00,2.13
             11.00,2.13 38.00,0.00 38.00,0.00
             59.86,-0.03 88.75,-0.96 108.00,10.45
             117.31,15.97 126.15,25.10 128.48,36.00
             129.27,39.65 129.05,50.70 129.00,55.00
             128.91,61.97 127.21,68.04 123.53,74.00
             118.38,82.35 111.10,86.14 103.00,91.00
             115.69,93.89 126.76,99.66 133.87,111.00
             140.15,121.00 139.02,129.85 139.00,141.00
             138.97,157.49 132.91,170.25 119.00,179.64
             104.66,189.33 84.10,192.97 67.00,193.00
             67.00,193.00 29.00,193.00 29.00,193.00
             29.00,193.00 0.00,190.00 0.00,190.00
             0.00,190.00 0.00,12.00 0.00,12.00 Z
           M 42.00,83.00
           C 42.00,83.00 65.00,81.17 65.00,81.17
             74.94,80.22 80.85,80.69 90.00,75.07
             107.75,64.17 107.19,38.51 89.00,28.35
             73.38,19.62 42.24,22.00 24.00,22.00
             24.00,22.00 24.00,83.00 24.00,83.00
             24.00,83.00 42.00,83.00 42.00,83.00 Z
           M 24.00,154.00
           C 24.00,157.39 23.10,169.00 25.60,170.98
             27.19,172.23 31.01,172.00 33.00,172.00
             51.82,172.04 81.80,173.54 98.00,163.53
             117.04,151.78 117.70,123.69 101.99,111.93
             92.94,105.16 85.49,104.97 75.00,103.72
             75.00,103.72 24.00,102.00 24.00,102.00
             24.00,102.00 24.00,154.00 24.00,154.00 Z" />
</svg>
